<svg id="Layer_1" data-name="Layer 1" xmlns="http://www.w3.org/2000/svg" viewBox="0 0 64 64"><defs><style>.cls-1{fill:#0795ff;}.cls-2{fill:#156cdd;}.cls-3{fill:#ccd8e5;}.cls-4{fill:#dfe8f4;}.cls-5{fill:#fff;}</style></defs><title>medical, medicine, healthcare, health, ambulance</title><path class="cls-1" d="M46.41,49.64a3.18,3.18,0,0,0-3.18,3.18,3.11,3.11,0,0,0,.44,1.57h-.44V56h3.18a3.18,3.18,0,1,0,0-6.36Z"/><path class="cls-2" d="M49.46,53.7a3.18,3.18,0,0,0,.14-.88,3,3,0,0,0-.18-1h-6a3,3,0,0,0-.18,1,2.84,2.84,0,0,0,.14.88Z"/><path class="cls-2" d="M46.41,52.82A3.18,3.18,0,1,0,43.23,56,3.18,3.18,0,0,0,46.41,52.82Z"/><path class="cls-1" d="M27.56,49.64a3.18,3.18,0,0,0-3.18,3.18,3.1,3.1,0,0,0,.43,1.57h-.43V56h3.18a3.18,3.18,0,0,0,0-6.36Z"/><path class="cls-2" d="M30.6,53.7a2.84,2.84,0,0,0,.14-.88,3.28,3.28,0,0,0-.17-1h-6a3,3,0,0,0-.18,1,3.17,3.17,0,0,0,.13.88Z"/><path class="cls-2" d="M27.56,52.82A3.18,3.18,0,1,0,24.38,56,3.18,3.18,0,0,0,27.56,52.82Z"/><path class="cls-1" d="M36.87,49.64a3.18,3.18,0,0,0-3.18,3.18,3.1,3.1,0,0,0,.43,1.57h-.43V56h3.18a3.18,3.18,0,0,0,0-6.36Z"/><path class="cls-2" d="M39.91,53.7a3.18,3.18,0,0,0,.14-.88,3,3,0,0,0-.18-1h-6a3.28,3.28,0,0,0-.17,1,3.17,3.17,0,0,0,.13.88Z"/><path class="cls-1" d="M18,49.64a3.18,3.18,0,0,0-3.19,3.18,3.11,3.11,0,0,0,.44,1.57h-.44V56H18a3.18,3.18,0,1,0,0-6.36Z"/><path class="cls-2" d="M21.06,53.7a3.18,3.18,0,0,0,.14-.88,3,3,0,0,0-.18-1H15a3,3,0,0,0-.18,1,2.84,2.84,0,0,0,.14.88Z"/><path class="cls-3" d="M51.36,52.79H9.93a1.85,1.85,0,0,1-1.85-1.85V35.1a8.44,8.44,0,0,1,8.44-8.44H39.36A6.37,6.37,0,0,1,44.25,29L52.81,39.2a4.14,4.14,0,0,1,.95,2.63v8.56A2.39,2.39,0,0,1,51.36,52.79Z"/><path class="cls-4" d="M52.81,39.2,44.25,29a6.37,6.37,0,0,0-4.89-2.29H28.61A6.37,6.37,0,0,1,33.5,29L42.06,39.2A4.14,4.14,0,0,1,43,41.83V48.2a3.32,3.32,0,0,1-3.32,3.34H39a1.08,1.08,0,0,1-1-.65,4.72,4.72,0,0,0-8.67,0,1.07,1.07,0,0,1-1,.65h-8.2a1.07,1.07,0,0,1-1-.65,4.72,4.72,0,0,0-8.67,0,1.08,1.08,0,0,1-1,.65H8.19a1.85,1.85,0,0,0,1.74,1.25H51.36a2.39,2.39,0,0,0,2.4-2.4V41.83A4.14,4.14,0,0,0,52.81,39.2Z"/><path class="cls-4" d="M44.36,40.34h10A1.64,1.64,0,0,1,56,42v6.79a4,4,0,0,1-4,4H44.36a0,0,0,0,1,0,0V40.34A0,0,0,0,1,44.36,40.34Z"/><path class="cls-2" d="M33,32.69v4a3.65,3.65,0,0,0,3.66,3.65H53.47a4.19,4.19,0,0,0-.66-1.14L45.93,31H34.75A1.72,1.72,0,0,0,33,32.69Z"/><path class="cls-1" d="M35.18,31l6.88,8.23a4.19,4.19,0,0,1,.66,1.14H53.47a4.53,4.53,0,0,0-.28-.59,5.36,5.36,0,0,0-.38-.55L45.93,31Z"/><path class="cls-2" d="M18,52.82A3.19,3.19,0,1,0,14.83,56,3.18,3.18,0,0,0,18,52.82Z"/><path class="cls-4" d="M15.63,52.82a.8.8,0,0,0-.8-.8.79.79,0,0,0-.79.8.79.79,0,0,0,.79.79A.79.79,0,0,0,15.63,52.82Z"/><path class="cls-2" d="M36.87,52.82A3.19,3.19,0,1,0,33.69,56,3.18,3.18,0,0,0,36.87,52.82Z"/><path class="cls-4" d="M34.48,52.82a.79.79,0,0,0-.79-.8.8.8,0,0,0-.8.8.79.79,0,0,0,.8.79A.79.79,0,0,0,34.48,52.82Z"/><rect class="cls-3" x="46.69" y="44.54" width="6.62" height="2.85"/><path class="cls-5" d="M46.69,47.4h0a.87.87,0,0,1-.87-.87V45.41a.87.87,0,0,1,.87-.87h0a.87.87,0,0,1,.87.87v1.12A.87.87,0,0,1,46.69,47.4Z"/><path class="cls-5" d="M53.32,47.4h0a.87.87,0,0,1-.87-.87V45.41a.87.87,0,0,1,.87-.87h0a.87.87,0,0,1,.87.87v1.12A.87.87,0,0,1,53.32,47.4Z"/><path class="cls-1" d="M37.66,26.66H24.18L28,21.85a1.92,1.92,0,0,1,1.54-.75h2.87a1.94,1.94,0,0,1,1.54.75Z"/><path class="cls-2" d="M34.67,26.66H21.2L25,21.85a1.94,1.94,0,0,1,1.54-.75h2.87a1.94,1.94,0,0,1,1.54.75Z"/><rect class="cls-5" x="19.88" y="33.85" width="4.36" height="11.75"/><rect class="cls-5" x="19.88" y="33.85" width="4.36" height="11.75" transform="translate(61.78 17.67) rotate(90)"/></svg>