<svg id="Layer_1" data-name="Layer 1" xmlns="http://www.w3.org/2000/svg" viewBox="0 0 64 64"><defs><style>.cls-1{fill:#0795ff;}.cls-2{fill:#156cdd;}.cls-3{fill:#fff;}</style></defs><title>medical, medicine, healthcare, health, protection</title><path class="cls-1" d="M22.19,50.68c1.45,1.08,2.8,2.17,4,3.24a8.79,8.79,0,0,0,11.54,0c1.24-1.07,2.59-2.16,4-3.24,1.88-1.4,3.74-2.64,5.5-3.7a7.93,7.93,0,0,0,3.9-6.79V14.64a2.39,2.39,0,0,0-1.77-2.31L34.22,8.21a8.57,8.57,0,0,0-4.44,0L14.56,12.33a2.4,2.4,0,0,0-1.77,2.32V40.18a7.94,7.94,0,0,0,3.9,6.8C18.45,48,20.31,49.28,22.19,50.68Z"/><path class="cls-2" d="M49.45,12.34,34.22,8.21a8.57,8.57,0,0,0-4.44,0L14.56,12.33a2.4,2.4,0,0,0-1.77,2.32V40.18a7.94,7.94,0,0,0,3.9,6.8c1.76,1.06,3.62,2.3,5.5,3.7,1.45,1.08,2.81,2.17,4,3.25a8.76,8.76,0,0,0,11.52,0c1.24-1.08,2.6-2.17,4.05-3.25A64,64,0,0,1,47.32,47a7.92,7.92,0,0,0,3.89-6.79V14.64A2.38,2.38,0,0,0,49.45,12.34ZM46.71,40.19A3.42,3.42,0,0,1,45,43.12a70.33,70.33,0,0,0-5.88,4c-1.51,1.12-3,2.29-4.31,3.46a4.29,4.29,0,0,1-5.62,0c-1.35-1.17-2.8-2.34-4.31-3.46h0a70.33,70.33,0,0,0-5.88-4,3.42,3.42,0,0,1-1.71-2.94V17.27a1.33,1.33,0,0,1,1-1.28L31,12.56a3.87,3.87,0,0,1,2.08,0L45.73,16a1.33,1.33,0,0,1,1,1.28Z"/><rect class="cls-3" x="28.09" y="22.48" width="7.81" height="17.03" rx="0.59"/><rect class="cls-3" x="28.09" y="22.48" width="7.81" height="17.03" rx="0.59" transform="translate(63 -1) rotate(90)"/></svg>