<svg id="Layer_1" data-name="Layer 1" xmlns="http://www.w3.org/2000/svg" viewBox="0 0 64 64"><defs><style>.cls-1{fill:#ccd8e5;}.cls-2{fill:#dfe8f4;}.cls-3{fill:#156cdd;}.cls-4{fill:#0795ff;}.cls-5{fill:#fff;}</style></defs><title>medical, medicine, healthcare, health, syringe</title><path class="cls-1" d="M10.48,23.33C7.16,20,7.38,14.42,11,10.84h0c3.59-3.59,9.18-3.8,12.5-.49l.08.08.08.09L26.08,13l-.57.57A9.22,9.22,0,0,1,23.14,23h0a9.23,9.23,0,0,1-9.47,2.37l-.54.54L11.32,24.1a7.49,7.49,0,0,1-.68-.6Z"/><path class="cls-2" d="M12.36,12.23h0a9.19,9.19,0,0,1,13,0l.18.18a9.19,9.19,0,0,1,0,13h0a9.18,9.18,0,0,1-13,0l-.17-.18A9.17,9.17,0,0,1,12.36,12.23Z"/><path class="cls-3" d="M16.31,16.19h0a4.17,4.17,0,0,1,5.9,0l.08.08a4.18,4.18,0,0,1,0,5.89h0a4.16,4.16,0,0,1-5.89,0l-.09-.08A4.18,4.18,0,0,1,16.31,16.19Z"/><path class="cls-4" d="M17.51,17.38h0a4.18,4.18,0,0,1,5.89,0l.08.08a4.16,4.16,0,0,1,0,5.89h0a4.16,4.16,0,0,1-5.89,0l-.08-.08A4.16,4.16,0,0,1,17.51,17.38Z"/><path class="cls-2" d="M31.52,18.41l19,19A7.37,7.37,0,0,1,52.66,43l-.33,7.28a2.05,2.05,0,0,1-1.95,2l-7.29.34a7.39,7.39,0,0,1-5.57-2.16l-19-19a9.19,9.19,0,0,1,0-13h0A9.18,9.18,0,0,1,31.52,18.41Z"/><path class="cls-1" d="M18.53,18.41h0a9.18,9.18,0,0,1,13,0l.17.18a9.17,9.17,0,0,1,0,13h0a9.19,9.19,0,0,1-13,0l-.18-.18A9.19,9.19,0,0,1,18.53,18.41Z"/><path class="cls-4" d="M46.35,49.69l9.24,6.14a.26.26,0,0,0,.36-.37l-6.13-9.23a2.52,2.52,0,0,0-2.09-1.12h0a2.5,2.5,0,0,0-2.49,2.5h0A2.5,2.5,0,0,0,46.35,49.69Z"/><path class="cls-5" d="M22.44,27.27l.89.88a9.17,9.17,0,0,0-.66,4.32l-.89-.88A9.28,9.28,0,0,1,22.44,27.27Z"/><path class="cls-5" d="M24.61,31.92l.88.88a9.06,9.06,0,0,0-.11,2.38l-.88-.88A9.06,9.06,0,0,1,24.61,31.92Z"/><path class="cls-5" d="M27.87,32.7l.88.88a9.28,9.28,0,0,0-.66,4.32L27.21,37A9.11,9.11,0,0,1,27.87,32.7Z"/><path class="cls-5" d="M30,37.35l.89.88a9.06,9.06,0,0,0-.11,2.38l-.89-.88A9.46,9.46,0,0,1,30,37.35Z"/><path class="cls-5" d="M33.3,38.12l.88.89a9.15,9.15,0,0,0-.66,4.32l-.88-.89A9.17,9.17,0,0,1,33.3,38.12Z"/><path class="cls-5" d="M35.46,42.77l.88.89a9.48,9.48,0,0,0-.1,2.38l-.89-.88A9.12,9.12,0,0,1,35.46,42.77Z"/></svg>