<?xml version="1.0" encoding="utf-8"?>
<!-- Generator: Adobe Illustrator 21.0.0, SVG Export Plug-In . SVG Version: 6.00 Build 0)  -->
<svg version="1.1" xmlns="http://www.w3.org/2000/svg" xmlns:xlink="http://www.w3.org/1999/xlink" x="0px" y="0px"
	 viewBox="0 0 64 64" style="enable-background:new 0 0 64 64;" xml:space="preserve">
<style type="text/css">
	.st0{fill:#FBB684;}
	.st1{fill:#538AC8;}
	.st2{fill:#FDCC99;}
	.st3{fill:#4279BD;}
	.st4{fill:#354E5A;}
	.st5{fill:#ACE0F3;}
	.st6{fill:#DFA57A;}
	.st7{fill:#FED767;}
	.st8{fill:#CCCCCC;}
	.st9{fill:#E6E6E6;}
	.st10{fill:#0B3442;}
	.st11{fill:#F2F2F2;}
	.st12{fill:#B3B3B3;}
	.st13{fill:#65A8DC;}
	.st14{fill:#2E599C;}
	.st15{fill:#FED9B4;}
	.st16{fill:#00A8C7;}
	.st17{fill:#02BFE2;}
	.st18{fill:#FFFFFF;}
	.st19{fill:#68C7C2;}
	.st20{fill:#00969D;}
	.st21{fill:#1CACAB;}
	.st22{fill:#FFE36E;}
	.st23{fill:#FEE9AB;}
	.st24{fill:#CC2B57;}
	.st25{fill:#DB1B51;}
	.st26{fill:#EE3A74;}
	.st27{fill:#FCB216;}
	.st28{fill:#FFCA3E;}
	.st29{fill:#DD2B26;}
	.st30{fill:#009E9E;}
	.st31{fill:#D22227;}
	.st32{fill:#CCDDE7;}
	.st33{fill:#57646E;}
	.st34{fill:#00A161;}
	.st35{fill:#19AD6D;}
	.st36{fill:#ABBAC3;}
	.st37{fill:#7A8D9D;}
	.st38{fill:#55C9E9;}
	.st39{fill:#EE2761;}
	.st40{fill:#A6228E;}
	.st41{fill:#F27DA5;}
	.st42{fill:#F064A5;}
	.st43{fill:#F8B6C6;}
	.st44{fill:#F494B7;}
	.st45{fill:#732672;}
	.st46{fill:#7EC3EC;}
	.st47{fill:#3B6BB4;}
	.st48{fill:#8AD5EC;}
	.st49{fill:#A36841;}
	.st50{fill:#BD8150;}
	.st51{fill:#FFE8C9;}
	.st52{fill:#48B758;}
	.st53{fill:#CC3995;}
	.st54{fill:#37BA95;}
	.st55{fill:none;stroke:#000000;stroke-linecap:round;stroke-linejoin:round;stroke-miterlimit:10;}
	.st56{fill:#D7559F;}
	.st57{fill:#00B08E;}
	.st58{fill:#84CBA0;}
	.st59{fill:#56BF98;}
	.st60{fill:#FEE7A3;}
	.st61{fill:#D3EEF4;}
</style>
<g id="guides">
</g>
<g id="_x32_5._stay_home">
</g>
<g id="_x32_4._covid_news">
</g>
<g id="_x32_3._tissue">
</g>
<g id="_x32_2._clothing">
</g>
<g id="_x32_1._hand_washing">
</g>
<g id="_x32_0._dna">
</g>
<g id="_x31_9._social_distancing">
</g>
<g id="_x31_8._hospital">
	<path class="st9" d="M40,10.5v12c0,0.2799683-0.2199707,0.5-0.5,0.5h-15c-0.2800293,0-0.5-0.2200317-0.5-0.5v-12
		C24,9.6699829,24.6699829,9,25.5,9h13C39.3300171,9,40,9.6699829,40,10.5z"/>
	<path class="st8" d="M40,20.9599609V22.5c0,0.2799683-0.2199707,0.5-0.5,0.5h-15c-0.2800293,0-0.5-0.2200317-0.5-0.5v-12
		C24,9.6699829,24.6699829,9,25.5,9h0.5700073C26.5599976,11.9199829,28.9299927,20.3499756,40,20.9599609z"/>
	<path class="st8" d="M60,24.5v28c0,1.3800049-1.1199951,2.5-2.5,2.5h-51C5.1199951,55,4,53.8800049,4,52.5v-28
		C4,23.1199951,5.1199951,22,6.5,22h51C58.8800049,22,60,23.1199951,60,24.5z"/>
	<path class="st9" d="M60,24.5V51H35.1666679C20.1629314,51,8,38.8370705,8,23.833334V22h49.5C58.8807106,22,60,23.1192875,60,24.5z
		"/>
	<path class="st17" d="M41,35.5v19c0,0.2799683-0.2199707,0.5-0.5,0.5h-17c-0.2800293,0-0.5-0.2200317-0.5-0.5v-19
		c0-0.2800293,0.2199707-0.5,0.5-0.5h17C40.7800293,35,41,35.2199707,41,35.5z"/>
	<path class="st16" d="M41,52.9199829V54.5c0,0.2799683-0.2199707,0.5-0.5,0.5h-17c-0.2800293,0-0.5-0.2200317-0.5-0.5v-19
		c0-0.2800293,0.2199707-0.5,0.5-0.5h2.210022C25.5200195,40.5499878,26.8699951,51.9500122,41,52.9199829z"/>
	<path class="st4" d="M42.5,32h-21c-0.8271484,0-1.5,0.6728516-1.5,1.5v1c0,0.8271484,0.6728516,1.5,1.5,1.5h21
		c0.8271484,0,1.5-0.6728516,1.5-1.5v-1C44,32.6728516,43.3271484,32,42.5,32z"/>
	<path class="st31" d="M36.5,14H34v-2.5c0-0.2763672-0.2236328-0.5-0.5-0.5h-3c-0.2763672,0-0.5,0.2236328-0.5,0.5V14h-2.5
		c-0.2763672,0-0.5,0.2236328-0.5,0.5v3c0,0.2763672,0.2236328,0.5,0.5,0.5H30v2.5c0,0.2763672,0.2236328,0.5,0.5,0.5h3
		c0.2763672,0,0.5-0.2236328,0.5-0.5V18h2.5c0.2763672,0,0.5-0.2236328,0.5-0.5v-3C37,14.2236328,36.7763672,14,36.5,14z"/>
	<path class="st32" d="M36,43.5V55h-8V43.5c0-0.2800293,0.2199707-0.5,0.5-0.5h7C35.7800293,43,36,43.2199707,36,43.5z"/>
	<g>
		<path class="st33" d="M30.5,50c-0.2763672,0-0.5-0.2236328-0.5-0.5v-1c0-0.2763672,0.2236328-0.5,0.5-0.5s0.5,0.2236328,0.5,0.5v1
			C31,49.7763672,30.7763672,50,30.5,50z"/>
	</g>
	<path class="st17" d="M53.5,27h-5c-0.8271484,0-1.5,0.6728516-1.5,1.5v5c0,0.8271484,0.6728516,1.5,1.5,1.5h5
		c0.8271484,0,1.5-0.6728516,1.5-1.5v-5C55,27.6728516,54.3271484,27,53.5,27z"/>
	<path class="st17" d="M53.5,39h-5c-0.8271484,0-1.5,0.6728516-1.5,1.5v5c0,0.8271484,0.6728516,1.5,1.5,1.5h5
		c0.8271484,0,1.5-0.6728516,1.5-1.5v-5C55,39.6728516,54.3271484,39,53.5,39z"/>
	<path class="st17" d="M15.5,27h-5C9.6728516,27,9,27.6728516,9,28.5v5c0,0.8271484,0.6728516,1.5,1.5,1.5h5
		c0.8271484,0,1.5-0.6728516,1.5-1.5v-5C17,27.6728516,16.3271484,27,15.5,27z"/>
	<path class="st17" d="M17,40.5v5c0,0.1599731-0.0200195,0.3099976-0.0800171,0.4500122
		C16.7399902,46.5599976,16.1699829,47,15.5,47h-5C9.6699829,47,9,46.3299561,9,45.5v-5c0-0.8300171,0.6699829-1.5,1.5-1.5h5
		C16.3300171,39,17,39.6699829,17,40.5z"/>
	<path class="st16" d="M16.9199829,45.9500122C16.7399902,46.5599976,16.1699829,47,15.5,47h-5C9.6699829,47,9,46.3299561,9,45.5v-5
		c0-0.8300171,0.6699829-1.5,1.5-1.5h0.4699707C10.9199829,40.5799561,11.2399902,45.4299927,16.9199829,45.9500122z"/>
	<path class="st16" d="M16.9199829,33.9500122C16.7399902,34.5599976,16.1699829,35,15.5,35h-5C9.6699829,35,9,34.3299561,9,33.5v-5
		c0-0.8300171,0.6699829-1.5,1.5-1.5h0.4699707C10.9199829,28.5799561,11.2399902,33.4299927,16.9199829,33.9500122z"/>
	<path class="st16" d="M54.9199829,33.9500122C54.7399902,34.5599976,54.1699829,35,53.5,35h-5c-0.8300171,0-1.5-0.6700439-1.5-1.5
		v-5c0-0.8300171,0.6699829-1.5,1.5-1.5h0.4699707C48.9199829,28.5799561,49.2399902,33.4299927,54.9199829,33.9500122z"/>
	<path class="st16" d="M54.9199829,45.9500122C54.7399902,46.5599976,54.1699829,47,53.5,47h-5c-0.8300171,0-1.5-0.6700439-1.5-1.5
		v-5c0-0.8300171,0.6699829-1.5,1.5-1.5h0.4699707C48.9199829,40.5799561,49.2399902,45.4299927,54.9199829,45.9500122z"/>
</g>
<g id="_x31_7._statistic">
</g>
<g id="_x31_6._no_flight">
</g>
<g id="_x31_5._china">
</g>
<g id="_x31_4._water_drop">
</g>
<g id="_x31_3._virus_scan">
</g>
<g id="_x31_2._water_tap">
</g>
<g id="_x31_1._soap">
</g>
<g id="_x31_0._bat">
</g>
<g id="_x39_._microscope">
</g>
<g id="_x38_._cough">
</g>
<g id="_x37_._medical_mask">
</g>
<g id="_x36_._coronavirus">
</g>
<g id="_x35_._world">
</g>
<g id="_x34_._shield">
</g>
<g id="_x33_._disinfectant">
</g>
<g id="_x32_._thermometer">
</g>
<g id="_x31_._protected">
</g>
</svg>
