<svg xmlns="http://www.w3.org/2000/svg" viewBox="0 0 64 64"><g id="_05-hospital" data-name="05-hospital"><polygon points="61 59 61 63 3 63 3 59 5 59 17 59 27 59 32 59 37 59 47 59 59 59 61 59" style="fill:#7e8596"/><rect x="13" y="37" width="4" height="15" style="fill:#1ea1e3"/><rect x="47" y="37" width="4" height="15" style="fill:#1ea1e3"/><rect x="51" y="37" width="4" height="15" style="fill:#19cffc"/><rect x="9" y="37" width="4" height="15" style="fill:#19cffc"/><rect x="55" y="37" width="4" height="15" style="fill:#96e8ff"/><polygon points="59 52 59 59 47 59 47 52 51 52 55 52 59 52" style="fill:#afb4c8"/><polygon points="59 33 59 37 55 37 51 37 47 37 47 33 59 33" style="fill:#afb4c8"/><path d="M47,52v7H37V49H27V59H17V27H30.75L32,29s.53-.85,1.26-2H47V52Zm-5-7V41H38v4Zm0-8V33H38v4Zm-8,8V41H30v4Zm0-8V33H30v4Zm-8,8V41H22v4Zm0-8V33H22v4Z" style="fill:#f2f6fc"/><rect x="38" y="41" width="4" height="4" style="fill:#ffb491"/><rect x="38" y="33" width="4" height="4" style="fill:#ffb491"/><path d="M33.26,27C32.53,28.15,32,29,32,29l-1.25-2L29.3,24.68a12,12,0,1,1,5.4,0C34.2,25.49,33.7,26.3,33.26,27ZM39,15V11H34V6H30v5H25v4h5v5h4V15Z" style="fill:#64e1dc"/><rect x="23" y="11" width="2" height="4" style="fill:#00c8c8"/><rect x="28" y="15" width="2" height="5" style="fill:#00c8c8"/><rect x="28" y="6" width="2" height="5" style="fill:#00c8c8"/><path d="M32,1c-.338,0-.669.023-1,.05a11.988,11.988,0,0,1,1.7,23.63c-.5.81-1,1.62-1.44,2.32L31,27.405,32,29s.53-.85,1.26-2c.44-.7.94-1.51,1.44-2.32A11.993,11.993,0,0,0,32,1Z" style="fill:#00c8c8"/><polygon points="39 11 39 15 34 15 34 20 30 20 30 15 25 15 25 11 30 11 30 6 34 6 34 11 39 11" style="fill:#f2f6fc"/><rect x="32" y="49" width="5" height="10" style="fill:#ff915e"/><rect x="30" y="41" width="4" height="4" style="fill:#ffb491"/><rect x="30" y="33" width="4" height="4" style="fill:#ffb491"/><rect x="27" y="49" width="5" height="10" style="fill:#ffb491"/><rect x="22" y="41" width="4" height="4" style="fill:#ffb491"/><rect x="22" y="33" width="4" height="4" style="fill:#ffb491"/><rect x="24" y="33" width="2" height="4" style="fill:#ff915e"/><rect x="32" y="33" width="2" height="4" style="fill:#ff915e"/><rect x="40" y="33" width="2" height="4" style="fill:#ff915e"/><rect x="24" y="41" width="2" height="4" style="fill:#ff915e"/><rect x="32" y="41" width="2" height="4" style="fill:#ff915e"/><rect x="40" y="41" width="2" height="4" style="fill:#ff915e"/><polygon points="17 52 17 59 5 59 5 52 9 52 13 52 17 52" style="fill:#afb4c8"/><polygon points="17 33 17 37 13 37 9 37 5 37 5 33 17 33" style="fill:#afb4c8"/><rect x="5" y="37" width="4" height="15" style="fill:#96e8ff"/><rect x="17" y="27" width="3" height="32" style="fill:#dce1eb"/><rect x="44" y="27" width="3" height="32" style="fill:#dce1eb"/><path d="M61,58H60V33a1,1,0,0,0-1-1H48V27a1,1,0,0,0-1-1H37v2h9V58H38V49a1,1,0,0,0-1-1H27a1,1,0,0,0-1,1v9H18V28h9V26H17a1,1,0,0,0-1,1v5H5a1,1,0,0,0-1,1V58H3a1,1,0,0,0-1,1v4a1,1,0,0,0,1,1H61a1,1,0,0,0,1-1V59A1,1,0,0,0,61,58ZM48,51V38h2V51Zm4-13h2V51H52Zm4,0h2V51H56Zm2-4v2H48V34ZM48,53H58v5H48ZM36,58H33V50h3Zm-8-8h3v8H28ZM6,51V38H8V51Zm4-13h2V51H10Zm4,0h2V51H14Zm2-4v2H6V34ZM6,53H16v5H6Zm54,9H4V60H60Z"/><path d="M27,33a1,1,0,0,0-1-1H22a1,1,0,0,0-1,1v4a1,1,0,0,0,1,1h4a1,1,0,0,0,1-1Zm-2,3H23V34h2Z"/><path d="M35,33a1,1,0,0,0-1-1H30a1,1,0,0,0-1,1v4a1,1,0,0,0,1,1h4a1,1,0,0,0,1-1Zm-2,3H31V34h2Z"/><path d="M43,33a1,1,0,0,0-1-1H38a1,1,0,0,0-1,1v4a1,1,0,0,0,1,1h4a1,1,0,0,0,1-1Zm-2,3H39V34h2Z"/><path d="M26,40H22a1,1,0,0,0-1,1v4a1,1,0,0,0,1,1h4a1,1,0,0,0,1-1V41A1,1,0,0,0,26,40Zm-1,4H23V42h2Z"/><path d="M34,40H30a1,1,0,0,0-1,1v4a1,1,0,0,0,1,1h4a1,1,0,0,0,1-1V41A1,1,0,0,0,34,40Zm-1,4H31V42h2Z"/><path d="M42,40H38a1,1,0,0,0-1,1v4a1,1,0,0,0,1,1h4a1,1,0,0,0,1-1V41A1,1,0,0,0,42,40Zm-1,4H39V42h2Z"/><path d="M28.67,25.558l2.482,3.972a1,1,0,0,0,1.7,0l2.482-3.972a13,13,0,1,0-6.66,0ZM32,2a11,11,0,0,1,2.473,21.71,1,1,0,0,0-.623.445L32,27.113l-1.85-2.958a1,1,0,0,0-.623-.445A11,11,0,0,1,32,2Z"/><path d="M25,16h4v4a1,1,0,0,0,1,1h4a1,1,0,0,0,1-1V16h4a1,1,0,0,0,1-1V11a1,1,0,0,0-1-1H35V6a1,1,0,0,0-1-1H30a1,1,0,0,0-1,1v4H25a1,1,0,0,0-1,1v4A1,1,0,0,0,25,16Zm1-4h4a1,1,0,0,0,1-1V7h2v4a1,1,0,0,0,1,1h4v2H34a1,1,0,0,0-1,1v4H31V15a1,1,0,0,0-1-1H26Z"/></g></svg>