<svg id="Layer_1" data-name="Layer 1" xmlns="http://www.w3.org/2000/svg" viewBox="0 0 64 64"><defs><style>.cls-1{fill:#0795ff;}.cls-2{fill:#156cdd;}</style></defs><title>medical, medicine, healthcare, health, lungs</title><path class="cls-1" d="M19,54.86l-1.58.64A6.86,6.86,0,0,1,8,49.13V44A20.86,20.86,0,0,1,17.9,26.25l4-2.46a3.94,3.94,0,0,1,6,3.35V41.69A14.2,14.2,0,0,1,19,54.86Z"/><path class="cls-1" d="M45,54.86l1.58.64A6.86,6.86,0,0,0,56,49.13V44A20.86,20.86,0,0,0,46.1,26.25l-4-2.46a3.94,3.94,0,0,0-6,3.35V41.69A14.2,14.2,0,0,0,45,54.86Z"/><path class="cls-2" d="M38.3,32H35.88a1.51,1.51,0,0,1-1.5-1.51v-20A2.48,2.48,0,0,0,32.24,8a2.38,2.38,0,0,0-2.62,2.37V30.49A1.51,1.51,0,0,1,28.12,32H25.7a2.47,2.47,0,0,0-2.5,2.13,2.38,2.38,0,0,0,2.36,2.62H38.44a2.38,2.38,0,0,0,2.36-2.62A2.47,2.47,0,0,0,38.3,32Z"/></svg>