<svg id="Layer_1" data-name="Layer 1" xmlns="http://www.w3.org/2000/svg" viewBox="0 0 64 64"><defs><style>.cls-1{fill:#ccd8e5;}.cls-2{fill:#dfe8f4;}.cls-3{fill:#0795ff;}.cls-4{fill:#156cdd;}</style></defs><title>medical, medicine, healthcare, health, stethoscope</title><path class="cls-1" d="M34.86,56a16,16,0,0,1-16-16V34H24v6a10.88,10.88,0,0,0,21.76,0V38.77h5.12V40A16,16,0,0,1,34.86,56Z"/><path class="cls-2" d="M26.22,34.33h-9.6A8.63,8.63,0,0,1,8,25.71V15a5.48,5.48,0,0,1,5.46-5.47v5.12a.35.35,0,0,0-.34.35V25.71a3.51,3.51,0,0,0,3.5,3.51h9.6a3.51,3.51,0,0,0,3.51-3.51V15a.35.35,0,0,0-.35-.35V9.53A5.48,5.48,0,0,1,34.85,15V25.71A8.63,8.63,0,0,1,26.22,34.33Z"/><rect class="cls-3" x="13.43" y="8" width="4.09" height="8.19" rx="1.45"/><rect class="cls-3" x="25.33" y="8" width="4.09" height="8.19" rx="1.45"/><circle class="cls-3" cx="47.9" cy="32.26" r="8.1" transform="translate(5.87 71.86) rotate(-77.26)"/><path class="cls-4" d="M50.33,32.26a2.43,2.43,0,1,1-2.43-2.43A2.43,2.43,0,0,1,50.33,32.26Z"/></svg>