<svg id="Layer_1" data-name="Layer 1" xmlns="http://www.w3.org/2000/svg" viewBox="0 0 64 64"><defs><style>.cls-1{fill:#0795ff;}.cls-2{fill:#fff;}</style></defs><title>medical, medicine, healthcare, health, heart, heartrate</title><path class="cls-1" d="M52.15,14.56h0a13.13,13.13,0,0,0-18.59,0L32,16.13l-1.56-1.56A13.13,13.13,0,0,0,11.85,33.14L32,53.27h0l0,0L52.15,33.15A13.13,13.13,0,0,0,52.15,14.56Z"/><path class="cls-2" d="M30.67,38.82A1.5,1.5,0,0,1,29.31,38l-1.72-3.68a1.52,1.52,0,0,1-1,.35H22.8a1.5,1.5,0,1,1,0-3h2.58l.37-1.93A1.5,1.5,0,0,1,27,28.5a1.48,1.48,0,0,1,1.54.85l1.93,4.1,2.72-7.29a1.5,1.5,0,0,1,1.4-1h0a1.51,1.51,0,0,1,1.41,1L38,31.63H41.2a1.5,1.5,0,0,1,0,3H36.92a1.5,1.5,0,0,1-1.42-1l-.9-2.56-2.52,6.77a1.52,1.52,0,0,1-1.35,1Z"/></svg>