<svg id="Layer_1" data-name="Layer 1" xmlns="http://www.w3.org/2000/svg" viewBox="0 0 64 64"><defs><style>.cls-1{fill:#0795ff;}.cls-2{fill:#dfe8f4;}.cls-3{fill:#156cdd;}.cls-4{fill:#ccd8e5;}</style></defs><title>medical, medicine, healthcare, health, center, hospital</title><rect class="cls-1" x="41.15" y="14.96" width="5.7" height="12.42" rx="0.43"/><rect class="cls-1" x="41.15" y="14.96" width="5.7" height="12.42" rx="0.43" transform="translate(65.17 -22.83) rotate(90)"/><path class="cls-1" d="M14,8H32.62a2.51,2.51,0,0,1,2.51,2.51V53.45a0,0,0,0,1,0,0H11.52a0,0,0,0,1,0,0V10.51A2.51,2.51,0,0,1,14,8Z"/><path class="cls-2" d="M35.13,29.85H49.66a2.82,2.82,0,0,1,2.82,2.82V53.45a0,0,0,0,1,0,0H35.13a0,0,0,0,1,0,0V29.85A0,0,0,0,1,35.13,29.85Z"/><rect class="cls-2" x="16.37" y="13.44" width="3.03" height="3.03" rx="1.21"/><rect class="cls-2" x="21.81" y="13.44" width="3.03" height="3.03" rx="1.21"/><rect class="cls-2" x="27.24" y="13.44" width="3.03" height="3.03" rx="1.21"/><rect class="cls-2" x="16.37" y="19.26" width="3.03" height="3.03" rx="1.21"/><rect class="cls-2" x="21.81" y="19.26" width="3.03" height="3.03" rx="1.21"/><rect class="cls-2" x="27.24" y="19.26" width="3.03" height="3.03" rx="1.21"/><rect class="cls-2" x="16.37" y="25.09" width="3.03" height="3.03" rx="1.21"/><rect class="cls-2" x="21.81" y="25.09" width="3.03" height="3.03" rx="1.21"/><rect class="cls-2" x="27.24" y="25.09" width="3.03" height="3.03" rx="1.21"/><rect class="cls-2" x="16.37" y="30.91" width="3.03" height="3.03" rx="1.21"/><rect class="cls-2" x="21.81" y="30.91" width="3.03" height="3.03" rx="1.21"/><rect class="cls-2" x="27.24" y="30.91" width="3.03" height="3.03" rx="1.21"/><rect class="cls-2" x="16.37" y="36.73" width="3.03" height="3.03" rx="1.21"/><rect class="cls-2" x="21.81" y="36.73" width="3.03" height="3.03" rx="1.21"/><rect class="cls-2" x="27.24" y="36.73" width="3.03" height="3.03" rx="1.21"/><path class="cls-3" d="M20.29,45.12h6.08a1.13,1.13,0,0,1,1.13,1.13v7.21a0,0,0,0,1,0,0H19.16a0,0,0,0,1,0,0V46.25A1.13,1.13,0,0,1,20.29,45.12Z"/><path class="cls-4" d="M46.38,53.45H41.23V50.87A2.57,2.57,0,0,1,43.8,48.3h0a2.58,2.58,0,0,1,2.58,2.57Z"/><rect class="cls-2" x="9.66" y="53.45" width="44.68" height="2.54" rx="1.12"/></svg>